<svg width="19" height="18" viewBox="0 0 19 18" fill="none" xmlns="http://www.w3.org/2000/svg">
<g id="chat-bubble-text-square--messages-message-bubble-text-square-chat" clipRule="url(#clip0_32_1543)">
<g id="chat-bubble-text-square--messages-message-bubble-text-square-chat_2">
<path id="Subtract" fillRule="evenodd" clipRule="evenodd" d="M3.4643 0C2.95282 0 2.46226 0.203188 2.10059 0.564866C1.73892 0.926542 1.53573 1.41709 1.53573 1.92857V13.3957L0.283003 17.1539C0.208806 17.3764 0.261772 17.6217 0.421192 17.7939C0.580611 17.9661 0.821161 18.0377 1.04879 17.9808L6.11486 16.7143H16.3214C16.8329 16.7143 17.3235 16.5111 17.6852 16.1495C18.0469 15.7878 18.25 15.2972 18.25 14.7857V1.92857C18.25 1.41708 18.0469 0.926542 17.6852 0.564866C17.3235 0.203188 16.8329 0 16.3214 0H3.4643ZM5.23214 6.23003C5.23214 5.78623 5.59191 5.42646 6.03571 5.42646H13.75C14.1938 5.42646 14.5536 5.78623 14.5536 6.23003C14.5536 6.67383 14.1938 7.0336 13.75 7.0336H6.03571C5.59191 7.0336 5.23214 6.67383 5.23214 6.23003ZM6.03571 9.68068C5.59191 9.68068 5.23214 10.0405 5.23214 10.4843C5.23214 10.9281 5.59191 11.2878 6.03571 11.2878H11.1786C11.6224 11.2878 11.9821 10.9281 11.9821 10.4843C11.9821 10.0405 11.6224 9.68068 11.1786 9.68068H6.03571Z" fill="#9DA0A8"/>
</g>
</g>
<defs>
<clipPath id="clip0_32_1543">
<rect width="18" height="18" fill="white" transform="translate(0.25)"/>
</clipPath>
</defs>
</svg>
