<svg width="18" height="20" viewBox="0 0 18 20" fill="none" xmlns="http://www.w3.org/2000/svg">
<g id="Group">
<path id="Vector" fillRule="evenodd" clipRule="evenodd" d="M17.25 14.3621C16.875 14.3621 16.62 14.2421 16.29 13.9421C16.005 13.6721 15.855 13.3271 15.855 12.9821V7.32714C15.855 5.60214 15.12 3.95214 13.83 2.75214C12.54 1.55214 10.8 0.877136 9 0.877136C7.2 0.877136 5.46 1.55214 4.17 2.75214C2.88 3.95214 2.145 5.60214 2.145 7.32714V12.9821C2.145 13.3271 1.995 13.6871 1.71 13.9421C1.38 14.2421 1.125 14.3621 0.75 14.3621C0.33 14.3621 0 14.6921 0 15.1121C0 15.5321 0.33 15.8621 0.75 15.8621H17.25C17.67 15.8621 18 15.5321 18 15.1121C18 14.6921 17.67 14.3621 17.25 14.3621Z" fill="#9DA0A8"/>
<path id="Vector_2" fillRule="evenodd" clipRule="evenodd" d="M7.29 17.3621C6.585 17.3621 6 17.8721 6 18.4871C6 19.1021 6.57 19.6121 7.29 19.6121H10.725C11.43 19.6121 12.015 19.1021 12.015 18.4871C12.015 17.8721 11.445 17.3621 10.725 17.3621H7.29Z" fill="#9DA0A8"/>
</g>
</svg>
