<svg width="36" height="36" viewBox="0 0 36 36" fill="none" xmlns="http://www.w3.org/2000/svg">
<g clipRule="url(#clip0_14_1477)">
<path d="M26.9888 18C26.9888 22.9725 22.9613 27 17.9888 27C13.0163 27 8.98877 22.9725 8.98877 18C8.98877 13.0275 13.0275 9 17.9888 9C22.95 9 26.9888 13.0275 26.9888 18Z" fill="#F9C900"/>
<path d="M18.6865 0H17.3027V6.91878H18.6865V0Z" fill="#F9C900"/>
<path d="M18.6865 29.0813H17.3027V36H18.6865V29.0813Z" fill="#F9C900"/>
<path d="M6.91874 17.3138H0V18.6976H6.91874V17.3138Z" fill="#F9C900"/>
<path d="M35.9998 17.3138H29.0698V18.6976H35.9998V17.3138Z" fill="#F9C900"/>
<path d="M30.2354 4.77581L25.1362 9.87494L26.1147 10.8534L31.2138 5.75426L30.2354 4.77581Z" fill="#F9C900"/>
<path d="M9.87598 25.1047L4.77686 30.2039L5.7553 31.1823L10.8544 26.0832L9.87598 25.1047Z" fill="#F9C900"/>
<path d="M5.75335 4.78547L4.7749 5.76392L9.87405 10.8631L10.8525 9.88462L5.75335 4.78547Z" fill="#F9C900"/>
<path d="M26.1015 25.2042L25.123 26.1827L30.2221 31.2818L31.2006 30.3033L26.1015 25.2042Z" fill="#F9C900"/>
</g>
<defs>
<clipPath id="clip0_14_1477">
<rect width="36" height="36" fill="white"/>
</clipPath>
</defs>
</svg>
