<svg width="19" height="20" viewBox="0 0 19 20" fill="none" xmlns="http://www.w3.org/2000/svg">
<g id="location-pin-3--navigation-map-maps-pin-gps-location">
<path id="Union" fillRule="evenodd" clipRule="evenodd" d="M9.74013 0.977722C13.1189 0.977722 15.9345 3.79333 15.9345 7.17215C15.9345 8.2749 15.5555 9.36243 15.0258 10.3478C14.494 11.337 13.79 12.2605 13.0906 13.0468C12.3899 13.8347 11.6819 14.498 11.1302 14.9666C10.8547 15.2007 10.6135 15.3901 10.4276 15.5243C10.3357 15.5906 10.2497 15.6488 10.1754 15.6934C10.1393 15.7151 10.0953 15.7401 10.0484 15.7617C10.0251 15.7724 9.99158 15.7869 9.95156 15.7996C9.92008 15.8097 9.84141 15.8333 9.74013 15.8333C9.63795 15.8333 9.55866 15.8093 9.52708 15.7991C9.48686 15.7861 9.45319 15.7715 9.42984 15.7607C9.38291 15.7388 9.33883 15.7136 9.3027 15.6917C9.22847 15.6468 9.14247 15.588 9.0507 15.5212C8.86489 15.3861 8.62382 15.1954 8.34843 14.9598C7.79706 14.4883 7.08937 13.8216 6.38899 13.0316C5.68999 12.2433 4.98637 11.3188 4.45474 10.332C3.92539 9.34934 3.5457 8.26625 3.5457 7.17215C3.5457 3.79333 6.36131 0.977722 9.74013 0.977722ZM9.74013 9.02214C8.7184 9.02214 7.89013 8.19388 7.89013 7.17215C7.89013 6.15043 8.7184 5.32215 9.74013 5.32215C10.7619 5.32215 11.5901 6.15043 11.5901 7.17215C11.5901 8.19388 10.7619 9.02214 9.74013 9.02214ZM13.7346 14.0689C13.9724 13.8016 14.2103 13.5215 14.4438 13.2306H14.9873H16.1749C16.4327 13.2306 16.6657 13.3842 16.7673 13.6211L18.6976 18.1255C18.7829 18.3246 18.7626 18.5533 18.6433 18.7341C18.5241 18.9149 18.3219 19.0237 18.1054 19.0237H1.3749C1.15828 19.0237 0.956152 18.9149 0.836905 18.7341C0.717656 18.5533 0.697245 18.3246 0.782577 18.1255L2.713 13.6211C2.81455 13.3842 3.04754 13.2306 3.30534 13.2306H4.49282H5.05218C5.2804 13.5147 5.51272 13.7886 5.74483 14.0504C6.59746 15.0121 7.45913 15.824 8.12995 16.3975C8.46507 16.6842 8.75722 16.9153 8.98095 17.0779C9.09166 17.1585 9.19333 17.2278 9.27938 17.2799C9.32141 17.3054 9.37042 17.3332 9.42124 17.357C9.44655 17.3688 9.48191 17.384 9.52355 17.3974C9.55656 17.4081 9.63701 17.4324 9.74006 17.4324C9.84222 17.4324 9.92206 17.4085 9.95495 17.3981C9.9964 17.3848 10.0316 17.3697 10.0569 17.358C10.1076 17.3345 10.1566 17.3069 10.1986 17.2817C10.2847 17.23 10.3864 17.1612 10.4972 17.0813C10.721 16.9198 11.0133 16.6904 11.3486 16.4055C12.0196 15.8354 12.8817 15.0278 13.7346 14.0689Z" fill="#9DA0A8"/>
</g>
</svg>
